<svg version="1.1" xmlns="http://www.w3.org/2000/svg" xmlns:xlink="http://www.w3.org/1999/xlink" role="img" width="376" height="79" viewbox="0 0 376 79"><title>natsort</title><desc>Generated by logo.svg, https://github.com/bubkoo/logo.svg</desc><path fill="#fc174f" d="M50.50 65L50.50 15.50L37 15.50L37 33.50L32.50 33.50L32.50 15.50L5.50 15.50L5.50 65L19 65L19 47L23.50 47L23.50 65L50.50 65M1 69.50L1 11L55 11L55 69.50L1 69.50ZM82 38L82 24.50L86.50 24.50L86.50 38L82 38M104.50 65L104.50 15.50L64 15.50L64 65L82 65L82 47L86.50 47L86.50 65L104.50 65M59.50 69.50L59.50 11L109 11L109 69.50L59.50 69.50ZM145 65L145 29L154 29L154 15.50L118 15.50L118 29L127 29L127 65L145 65M122.50 69.50L122.50 33.50L113.50 33.50L113.50 11L158.50 11L158.50 33.50L149.50 33.50L149.50 69.50L122.50 69.50ZM208 65L208 33.50L190 33.50L190 29L208 29L208 15.50L167.50 15.50L167.50 47L185.50 47L185.50 51.50L167.50 51.50L167.50 65L208 65M163 69.50L163 11L212.50 11L212.50 69.50L163 69.50ZM239.50 51.50L239.50 29L244 29L244 51.50L239.50 51.50M262 65L262 15.50L221.50 15.50L221.50 65L262 65M217 69.50L217 11L266.50 11L266.50 69.50L217 69.50ZM293.50 38L293.50 24.50L298 24.50L298 38L293.50 38M316 65L316 47L307 47L307 42.50L316 42.50L316 15.50L275.50 15.50L275.50 65L293.50 65L293.50 51.50L298 51.50L298 65L316 65M271 69.50L271 11L320.50 11L320.50 69.50L271 69.50ZM356.50 65L356.50 29L365.50 29L365.50 15.50L329.50 15.50L329.50 29L338.50 29L338.50 65L356.50 65M334 69.50L334 33.50L325 33.50L325 11L370 11L370 33.50L361 33.50L361 69.50L334 69.50Z"></path></svg>